<svg xmlns="http://www.w3.org/2000/svg" viewBox="0 0 1200 630">
  <defs>
    <linearGradient id="bg" x1="0%" y1="0%" x2="100%" y2="100%">
      <stop offset="0%" style="stop-color:#eef4ff"/>
      <stop offset="100%" style="stop-color:#ddeaff"/>
    </linearGradient>
    <linearGradient id="blob1" x1="0%" y1="0%" x2="100%" y2="100%">
      <stop offset="0%" style="stop-color:#4f8ef7;stop-opacity:0.25"/>
      <stop offset="100%" style="stop-color:#3a7ae0;stop-opacity:0.1"/>
    </linearGradient>
    <linearGradient id="blob2" x1="0%" y1="0%" x2="100%" y2="100%">
      <stop offset="0%" style="stop-color:#6aa3f8;stop-opacity:0.2"/>
      <stop offset="100%" style="stop-color:#4f8ef7;stop-opacity:0.05"/>
    </linearGradient>
    <linearGradient id="badgebg" x1="0%" y1="0%" x2="100%" y2="100%">
      <stop offset="0%" style="stop-color:#4f8ef7"/>
      <stop offset="100%" style="stop-color:#3a7ae0"/>
    </linearGradient>
  </defs>

  <rect width="1200" height="630" fill="url(#bg)"/>
  <ellipse cx="900" cy="150" rx="320" ry="280" fill="url(#blob1)" opacity="0.7"/>
  <ellipse cx="200" cy="500" rx="250" ry="220" fill="url(#blob2)" opacity="0.6"/>
  <ellipse cx="1100" cy="520" rx="180" ry="160" fill="url(#blob1)" opacity="0.4"/>
  <rect x="80" y="80" width="720" height="470" rx="28" fill="rgba(255,255,255,0.65)" stroke="rgba(255,255,255,0.9)" stroke-width="1.5"/>
  <rect x="120" y="130" width="160" height="32" rx="16" fill="rgba(79,142,247,0.12)"/>
  <text x="200" y="151" font-family="Georgia, serif" font-size="13" font-weight="600" fill="#4f8ef7" text-anchor="middle">Frontend Dev</text>
  <text x="120" y="240" font-family="Georgia, serif" font-size="72" font-weight="800" fill="#0a0a0a" letter-spacing="-2">김효래</text>
  <text x="122" y="290" font-family="Georgia, serif" font-size="28" font-weight="400" fill="#6b7280">Kim Hyorae</text>
  <line x1="120" y1="320" x2="720" y2="320" stroke="rgba(0,0,0,0.08)" stroke-width="1"/>
  <text x="120" y="370" font-family="Georgia, serif" font-size="22" fill="#374151">사용자 경험과 코드 품질을 중시하는</text>
  <text x="120" y="402" font-family="Georgia, serif" font-size="22" fill="#374151">풀스택 개발자장니다.</text>
  <rect x="120" y="440" width="90" height="30" rx="15" fill="rgba(79,142,247,0.1)" stroke="rgba(79,142,247,0.3)" stroke-width="1"/>
  <text x="165" y="460" font-family="Georgia, serif" font-size="13" fill="#4f8ef7" text-anchor="middle">React</text>
  <rect x="222" y="440" width="120" height="30" rx="15" fill="rgba(79,142,247,0.1)" stroke="rgba(79,142,247,0.3)" stroke-width="1"/>
  <text x="282" y="460" font-family="Georgia, serif" font-size="13" fill="#4f8ef7" text-anchor="middle">JavaScript</text>
  <rect x="354" y="440" width="110" height="30" rx="15" fill="rgba(79,142,247,0.1)" stroke="rgba(79,142,247,0.3)" stroke-width="1"/>
  <text x="409" y="460" font-family="Georgia, serif" font-size="13" fill="#4f8ef7" text-anchor="middle">Spring Boot</text>
  <rect x="476" y="440" width="80" height="30" rx="15" fill="rgba(79,142,247,0.1)" stroke="rgba(79,142,247,0.3)" stroke-width="1"/>
  <text x="516" y="460" font-family="Georgia, serif" font-size="13" fill="#4f8ef7" text-anchor="middle">Docker</text>
  <circle cx="1000" cy="315" r="160" fill="none" stroke="rgba(79,142,247,0.15)" stroke-width="1.5"/>
  <circle cx="1000" cy="315" r="110" fill="none" stroke="rgba(79,142,247,0.1)" stroke-width="1"/>
  <circle cx="1000" cy="315" r="60" fill="rgba(79,142,247,0.08)" stroke="rgba(79,142,247,0.2)" stroke-width="1"/>
  <text x="1000" y="325" font-family="Georgia, serif" font-size="36" font-weight="800" fill="#4f8ef7" text-anchor="middle">KHR</text>
</svg>
