<svg width="18" height="18" viewBox="0 0 18 18" fill="none" xmlns="http://www.w3.org/2000/svg">

<path d="M11.2508 16.5V13.5C11.3552 12.5605 11.0858 11.6176 10.5008 10.875C12.7508 10.875 15.0008 9.375 15.0008 6.75C15.0608 5.8125 14.7983 4.89 14.2508 4.125C14.4608 3.2625 14.4608 2.3625 14.2508 1.5C14.2508 1.5 13.5008 1.5 12.0008 2.625C10.0208 2.25 7.98082 2.25 6.00082 2.625C4.50082 1.5 3.75082 1.5 3.75082 1.5C3.52582 2.3625 3.52582 3.2625 3.75082 4.125C3.20473 4.88691 2.93968 5.81459 3.00082 6.75C3.00082 9.375 5.25082 10.875 7.50082 10.875C7.20832 11.2425 6.99082 11.6625 6.86332 12.1125C6.73582 12.5625 6.69832 13.035 6.75082 13.5V16.5" stroke="#4F8EF7" stroke-width="1.5" stroke-linecap="round" stroke-linejoin="round"/>
<path d="M6.75 13.5C3.3675 15 3 12 1.5 12" stroke="#4F8EF7" stroke-width="1.5" stroke-linecap="round" stroke-linejoin="round"/>
</svg>
